<?xml version="1.0" encoding="UTF-8" standalone="no"?>
<!-- Creator: CorelDRAW 2020 (64-Bit) -->

<svg
   xmlns:dc="http://purl.org/dc/elements/1.1/"
   xmlns:cc="http://creativecommons.org/ns#"
   xmlns:rdf="http://www.w3.org/1999/02/22-rdf-syntax-ns#"
   xmlns:svg="http://www.w3.org/2000/svg"
   xmlns="http://www.w3.org/2000/svg"
   xmlns:sodipodi="http://sodipodi.sourceforge.net/DTD/sodipodi-0.dtd"
   xmlns:inkscape="http://www.inkscape.org/namespaces/inkscape"
   xml:space="preserve"
   width="18mm"
   height="18mm"
   version="1.1"
   style="shape-rendering:geometricPrecision; text-rendering:geometricPrecision; image-rendering:optimizeQuality; fill-rule:evenodd; clip-rule:evenodd"
   viewBox="0 0 1800 1800"
   sodipodi:docname="dc_letters.svg"
   inkscape:version="0.92.4 (5da689c313, 2019-01-14)"
   id="svg13"
   inkscape:export-filename="C:\Professional Work\diabetes-control\app\src\main\res\drawable\splash_screen_icon.png"
   inkscape:export-xdpi="270.93335"
   inkscape:export-ydpi="270.93335"><metadata
   id="metadata17"><rdf:RDF><cc:Work
       rdf:about=""><dc:format>image/svg+xml</dc:format><dc:type
         rdf:resource="http://purl.org/dc/dcmitype/StillImage" /></cc:Work></rdf:RDF></metadata><sodipodi:namedview
   pagecolor="#ffffff"
   bordercolor="#666666"
   borderopacity="1"
   objecttolerance="10"
   gridtolerance="10"
   guidetolerance="10"
   inkscape:pageopacity="0"
   inkscape:pageshadow="2"
   inkscape:window-width="2560"
   inkscape:window-height="1377"
   id="namedview15"
   showgrid="false"
   inkscape:zoom="3.4689815"
   inkscape:cx="34.015748"
   inkscape:cy="34.015748"
   inkscape:window-x="1912"
   inkscape:window-y="-8"
   inkscape:window-maximized="1"
   inkscape:current-layer="svg13" />
 <defs
   id="defs4">
  <style
   type="text/css"
   id="style2">
   <![CDATA[
    .fil0 {fill:#1A1A1A;fill-rule:nonzero}
    .fil1 {fill:white;fill-rule:nonzero}
   ]]>
  </style>
 </defs>
 <g
   id="Layer_x0020_1">
  <metadata
   id="CorelCorpID_0Corel-Layer" />
  <g
   id="g10">
  </g>
  <path
   id="path18"
   class="fil0"
   d="M531.39 1114.88l-287.74 0 213.14 -852.55 281.82 0 -177.61 714.01c-2.37,10.26 3.16,18.15 16.58,23.68 11.05,4.73 22.1,7.1 33.15,7.1 16.58,0 35.53,-3.16 56.84,-9.47 111.31,-32.37 198.93,-80.13 262.87,-143.28 74.2,-73.42 111.31,-163.41 111.31,-269.97 0,-68.68 -19.34,-122.56 -58.02,-161.63 -38.68,-39.08 -92.36,-58.61 -161.04,-58.61 -19.73,0 -34.33,0 -43.81,0l31.97 -101.83 195.36 0c126.3,0 220.24,35.92 281.81,107.75 44.21,51.31 66.31,112.88 66.31,184.72 0,66.31 -26.84,145.64 -80.52,238 -34.73,59.21 -97.89,117.23 -189.46,174.06 -65.52,41.05 -134.2,72.23 -206.03,93.54 -52.89,15.79 -126.3,30.39 -220.24,43.81 -50.52,7.11 -92.75,10.66 -126.69,10.66l0 0.01z" />
  <path
   id="path20"
   class="fil0"
   d="M1578.73 805.06l26.05 4.74 -84.07 335.1 -114.86 -0.01 3.55 -16.58c3.95,-18.16 5.92,-34.73 5.92,-49.73l0 -17.76 -2.36 -39.07c-2.37,-36.31 -15,-65.92 -37.89,-88.81 -22.89,-22.89 -52.1,-34.34 -87.62,-34.34 -40.26,0 -84.46,16.58 -132.62,49.73 -63.15,43.42 -112.49,95.12 -148.01,155.11 -38.68,64.73 -58.02,133.01 -58.02,204.85 0,60.78 15.39,111.31 46.18,151.56 33.94,44.2 80.52,66.31 139.72,66.31 44.2,0 93.15,-15.39 146.83,-46.18 40.26,-22.9 75.39,-48.16 105.39,-75.78l14.21 -13.03 11.84 -9.47 114.86 73.42 -9.47 10.66 -9.47 8.29c-102.62,108.94 -238.4,163.41 -407.33,163.41 -72.62,0 -131.44,-6.71 -176.43,-20.13 -56.04,-16.58 -106.96,-46.97 -152.75,-91.17 -62.36,-59.99 -93.55,-137.75 -93.55,-233.27 0,-89.2 18.55,-164.19 55.65,-224.98 34.73,-55.26 91.18,-108.94 169.33,-161.04 119.99,-78.94 271.56,-118.41 454.69,-118.41 47.36,0 99.47,3.16 156.3,9.47l63.93 7.11z" />
  <path
   id="path22"
   class="fil1"
   d="M471.09 1026.94l-287.73 0 213.14 -852.55 281.81 0 -177.61 714.01c-2.37,10.26 3.16,18.15 16.58,23.68 11.05,4.73 22.1,7.1 33.15,7.1 16.58,0 35.53,-3.16 56.84,-9.47 111.31,-32.37 198.93,-80.13 262.87,-143.28 74.2,-73.42 111.31,-163.41 111.31,-269.97 0,-68.68 -19.34,-122.56 -58.02,-161.63 -38.68,-39.08 -92.36,-58.61 -161.04,-58.61 -19.73,0 -34.33,0 -43.81,0l31.97 -101.83 195.36 0c126.3,0 220.24,35.92 281.81,107.75 44.21,51.31 66.31,112.88 66.31,184.72 0,66.31 -26.84,145.64 -80.52,238 -34.73,59.21 -97.89,117.23 -189.46,174.06 -65.52,41.05 -134.2,72.23 -206.03,93.54 -52.89,15.79 -126.3,30.39 -220.24,43.81 -50.52,7.11 -92.75,10.66 -126.69,10.66l0 0.01z" />
  <path
   id="path24"
   class="fil1"
   d="M1518.43 717.13l26.05 4.74 -84.07 335.1 -114.86 -0.01 3.55 -16.58c3.95,-18.16 5.92,-34.73 5.92,-49.73l0 -17.76 -2.36 -39.07c-2.37,-36.31 -15,-65.92 -37.89,-88.81 -22.89,-22.89 -52.1,-34.34 -87.62,-34.34 -40.26,0 -84.46,16.58 -132.62,49.73 -63.15,43.42 -112.49,95.12 -148.01,155.11 -38.68,64.73 -58.02,133.01 -58.02,204.85 0,60.78 15.39,111.31 46.18,151.56 33.94,44.2 80.52,66.31 139.72,66.31 44.2,0 93.15,-15.39 146.83,-46.18 40.26,-22.9 75.39,-48.16 105.39,-75.78l14.21 -13.03 11.84 -9.47 114.86 73.42 -9.47 10.66 -9.47 8.29c-102.62,108.94 -238.4,163.41 -407.33,163.41 -72.62,0 -131.44,-6.71 -176.43,-20.13 -56.04,-16.58 -106.96,-46.97 -152.75,-91.17 -62.36,-59.99 -93.55,-137.75 -93.55,-233.27 0,-89.2 18.55,-164.19 55.65,-224.98 34.73,-55.26 91.18,-108.94 169.33,-161.04 119.99,-78.94 271.56,-118.41 454.69,-118.41 47.36,0 99.47,3.16 156.3,9.47l63.93 7.11z"/>
 </g>
</svg>