<?xml version="1.0" encoding="UTF-8"?>
<!DOCTYPE svg PUBLIC "-//W3C//DTD SVG 1.1//EN" "http://www.w3.org/Graphics/SVG/1.1/DTD/svg11.dtd">
<!-- Creator: CorelDRAW 2019 (64-Bit) -->
<svg xmlns="http://www.w3.org/2000/svg" xml:space="preserve" width="43.3492mm" height="43.3492mm" version="1.1" style="shape-rendering:geometricPrecision; text-rendering:geometricPrecision; image-rendering:optimizeQuality; fill-rule:evenodd; clip-rule:evenodd"
viewBox="0 0 4334.92 4334.92"
 xmlns:xlink="http://www.w3.org/1999/xlink"
 xmlns:xodm="http://www.corel.com/coreldraw/odm/2003">
 <defs>
  <style type="text/css">
   <![CDATA[
    .fil5 {fill:none}
    .fil2 {fill:#25714D}
    .fil1 {fill:#082E75}
    .fil0 {fill:#086575}
    .fil3 {fill:#1A1A1A;fill-rule:nonzero}
    .fil4 {fill:white;fill-rule:nonzero}
   ]]>
  </style>
   <clipPath id="id0">
    <path d="M2167.46 0l0 0c1192.12,0 2167.46,975.34 2167.46,2167.46l0 0c0,1192.12 -975.34,2167.46 -2167.46,2167.46l0 0c-1192.12,0 -2167.46,-975.34 -2167.46,-2167.46l0 0c0,-1192.12 975.34,-2167.46 2167.46,-2167.46z"/>
   </clipPath>
 </defs>
 <g id="Layer_x0020_1">
  <metadata id="CorelCorpID_0Corel-Layer"/>
  <g>
  </g>
  <g style="clip-path:url(#id0)">
   <g>
    <rect class="fil0" x="-0.01" y="-6.63" width="4334.93" height="4334.93"/>
    <rect class="fil1" x="-0.01" y="-0" width="4334.93" height="737.81"/>
    <rect class="fil2" x="-0.01" y="4011.73" width="4334.93" height="330.4"/>
    <path class="fil3" d="M1370.2 2690.53l-654.76 0 485 -1940.02 641.29 0 -404.17 1624.77c-5.39,23.35 7.18,41.31 37.72,53.89 25.15,10.77 50.3,16.16 75.44,16.16 37.73,0 80.84,-7.18 129.34,-21.55 253.28,-73.65 452.67,-182.33 598.17,-326.03 168.85,-167.06 253.28,-371.84 253.28,-614.34 0,-156.28 -44.01,-278.88 -132.03,-367.8 -88.02,-88.92 -210.17,-133.37 -366.45,-133.37 -44.9,0 -78.13,0 -99.69,0l72.75 -231.73 444.59 0c287.41,0 501.17,81.73 641.28,245.2 100.6,116.76 150.89,256.87 150.89,420.34 0,150.89 -61.07,331.42 -183.22,541.58 -79.04,134.73 -222.75,266.76 -431.12,396.09 -149.09,93.41 -305.37,164.36 -468.84,212.86 -120.35,35.93 -287.41,69.16 -501.17,99.7 -114.96,16.17 -211.06,24.25 -288.3,24.25z"/>
    <path class="fil3" d="M3753.47 1985.53l59.28 10.78 -191.31 762.53 -261.36 0 8.08 -37.72c8.98,-41.32 13.47,-79.04 13.47,-113.17l0 -40.42 -5.38 -88.91c-5.39,-82.63 -34.13,-150 -86.23,-202.09 -52.09,-52.09 -118.55,-78.14 -199.39,-78.14 -91.61,0 -192.2,37.72 -301.78,113.17 -143.7,98.8 -255.97,216.45 -336.81,352.97 -88.02,147.3 -132.03,302.68 -132.03,466.15 0,138.31 35.03,253.28 105.09,344.89 77.24,100.59 183.22,150.89 317.95,150.89 100.59,0 211.96,-35.03 334.11,-105.08 91.61,-52.1 171.55,-109.58 239.81,-172.45l32.33 -29.64 26.95 -21.56 261.36 167.06 -21.56 24.25 -21.55 18.86c-233.52,247.89 -542.49,371.84 -926.9,371.84 -165.26,0 -299.09,-15.27 -401.48,-45.81 -127.53,-37.72 -243.4,-106.88 -347.58,-207.47 -141.91,-136.52 -212.87,-313.46 -212.87,-530.81 0,-202.98 42.22,-373.63 126.64,-511.95 79.04,-125.74 207.48,-247.89 385.31,-366.45 273.04,-179.63 617.94,-269.45 1034.68,-269.45 107.78,0 226.34,7.19 355.67,21.56l145.5 16.17z"/>
    <path class="fil4" d="M1232.99 2490.42l-654.76 0 485 -1940.02 641.29 0 -404.17 1624.77c-5.39,23.35 7.18,41.31 37.72,53.89 25.15,10.77 50.3,16.16 75.44,16.16 37.73,0 80.84,-7.18 129.34,-21.55 253.28,-73.65 452.67,-182.33 598.17,-326.03 168.85,-167.06 253.28,-371.84 253.28,-614.34 0,-156.28 -44.01,-278.88 -132.03,-367.8 -88.02,-88.92 -210.17,-133.37 -366.45,-133.37 -44.9,0 -78.13,0 -99.69,0l72.75 -231.73 444.59 0c287.41,0 501.17,81.73 641.28,245.2 100.6,116.76 150.89,256.87 150.89,420.34 0,150.89 -61.07,331.42 -183.22,541.58 -79.04,134.73 -222.75,266.76 -431.12,396.09 -149.09,93.41 -305.37,164.36 -468.84,212.86 -120.35,35.93 -287.41,69.16 -501.17,99.7 -114.96,16.17 -211.06,24.25 -288.3,24.25z"/>
    <path class="fil4" d="M3616.25 1785.43l59.28 10.78 -191.31 762.53 -261.36 0 8.08 -37.72c8.98,-41.32 13.47,-79.04 13.47,-113.17l0 -40.42 -5.38 -88.91c-5.39,-82.63 -34.13,-150 -86.23,-202.09 -52.09,-52.09 -118.55,-78.14 -199.39,-78.14 -91.61,0 -192.2,37.72 -301.78,113.17 -143.7,98.8 -255.97,216.45 -336.81,352.97 -88.02,147.3 -132.03,302.68 -132.03,466.15 0,138.31 35.03,253.28 105.09,344.89 77.24,100.59 183.22,150.89 317.95,150.89 100.59,0 211.96,-35.03 334.11,-105.08 91.61,-52.1 171.55,-109.58 239.81,-172.45l32.33 -29.64 26.95 -21.56 261.36 167.06 -21.56 24.25 -21.55 18.86c-233.52,247.89 -542.49,371.84 -926.9,371.84 -165.26,0 -299.09,-15.27 -401.48,-45.81 -127.53,-37.72 -243.4,-106.88 -347.58,-207.47 -141.91,-136.52 -212.87,-313.46 -212.87,-530.81 0,-202.98 42.22,-373.63 126.64,-511.95 79.04,-125.74 207.48,-247.89 385.31,-366.45 273.04,-179.63 617.94,-269.45 1034.68,-269.45 107.78,0 226.34,7.19 355.67,21.56l145.5 16.17z"/>
   </g>
  </g>
  <path class="fil5" d="M2167.46 0l0 0c1192.12,0 2167.46,975.34 2167.46,2167.46l0 0c0,1192.12 -975.34,2167.46 -2167.46,2167.46l0 0c-1192.12,0 -2167.46,-975.34 -2167.46,-2167.46l0 0c0,-1192.12 975.34,-2167.46 2167.46,-2167.46z"/>
 </g>
</svg>
