<?xml version="1.0" encoding="UTF-8" standalone="no"?>
<!-- Creator: CorelDRAW 2019 (64-Bit) -->

<svg
   xmlns:dc="http://purl.org/dc/elements/1.1/"
   xmlns:cc="http://creativecommons.org/ns#"
   xmlns:rdf="http://www.w3.org/1999/02/22-rdf-syntax-ns#"
   xmlns:svg="http://www.w3.org/2000/svg"
   xmlns="http://www.w3.org/2000/svg"
   xmlns:sodipodi="http://sodipodi.sourceforge.net/DTD/sodipodi-0.dtd"
   xmlns:inkscape="http://www.inkscape.org/namespaces/inkscape"
   xml:space="preserve"
   width="72"
   height="72"
   version="1.1"
   style="clip-rule:evenodd;fill-rule:evenodd;image-rendering:optimizeQuality;shape-rendering:geometricPrecision;text-rendering:geometricPrecision"
   viewBox="0 0 72.000001 72.000001"
   id="svg33"
   sodipodi:docname="icon_rounded.svg"
   inkscape:version="0.92.4 (5da689c313, 2019-01-14)"><metadata
   id="metadata37"><rdf:RDF><cc:Work
       rdf:about=""><dc:format>image/svg+xml</dc:format><dc:type
         rdf:resource="http://purl.org/dc/dcmitype/StillImage" /><dc:title></dc:title></cc:Work></rdf:RDF></metadata><sodipodi:namedview
   pagecolor="#ffffff"
   bordercolor="#666666"
   borderopacity="1"
   objecttolerance="10"
   gridtolerance="10"
   guidetolerance="10"
   inkscape:pageopacity="0"
   inkscape:pageshadow="2"
   inkscape:window-width="1920"
   inkscape:window-height="1137"
   id="namedview35"
   showgrid="false"
   units="px"
   inkscape:zoom="4.0741628"
   inkscape:cx="27.044517"
   inkscape:cy="39.666523"
   inkscape:window-x="-8"
   inkscape:window-y="382"
   inkscape:window-maximized="1"
   inkscape:current-layer="svg33" />
 <defs
   id="defs7">
  <style
   type="text/css"
   id="style2">
   <![CDATA[
    .fil5 {fill:none}
    .fil2 {fill:#25714D}
    .fil1 {fill:#082E75}
    .fil0 {fill:#086575}
    .fil3 {fill:#1A1A1A;fill-rule:nonzero}
    .fil4 {fill:white;fill-rule:nonzero}
   ]]>
  </style>
   <clipPath
   id="id0">
    <path
   d="m 863.59,0 h 2607.74 c 474.99,0 863.59,388.6 863.59,863.59 v 2607.74 c 0,474.99 -388.6,863.59 -863.59,863.59 H 863.59 C 388.6,4334.92 0,3946.32 0,3471.33 V 863.59 C 0,388.6 388.6,0 863.59,0 Z"
   id="path4"
   inkscape:connector-curvature="0" />
   </clipPath>
 </defs>
 <g
   id="Layer_x0020_1"
   transform="matrix(0.0166093,0,0,0.0166093,0,1.3244e-5)">
  <metadata
   id="CorelCorpID_0Corel-Layer" />
  <g
   id="g10">
  </g>
  <g
   clip-path="url(#id0)"
   id="g28">
   <g
   id="g26">
    <rect
   class="fil0"
   x="-0.0099999998"
   y="-6.6300001"
   width="4334.9302"
   height="4334.9302"
   id="rect12"
   style="fill:#086575" />
    <rect
   class="fil1"
   x="-0.0099999998"
   y="0"
   width="4334.9302"
   height="737.81"
   id="rect14"
   style="fill:#082e75" />
    <rect
   class="fil2"
   x="-0.0099999998"
   y="4011.73"
   width="4334.9302"
   height="330.39999"
   id="rect16"
   style="fill:#25714d" />
    <path
   class="fil3"
   d="M 1370.2,2690.53 H 715.44 l 485,-1940.02 h 641.29 l -404.17,1624.77 c -5.39,23.35 7.18,41.31 37.72,53.89 25.15,10.77 50.3,16.16 75.44,16.16 37.73,0 80.84,-7.18 129.34,-21.55 253.28,-73.65 452.67,-182.33 598.17,-326.03 168.85,-167.06 253.28,-371.84 253.28,-614.34 0,-156.28 -44.01,-278.88 -132.03,-367.8 -88.02,-88.92 -210.17,-133.37 -366.45,-133.37 -44.9,0 -78.13,0 -99.69,0 l 72.75,-231.73 h 444.59 c 287.41,0 501.17,81.73 641.28,245.2 100.6,116.76 150.89,256.87 150.89,420.34 0,150.89 -61.07,331.42 -183.22,541.58 -79.04,134.73 -222.75,266.76 -431.12,396.09 -149.09,93.41 -305.37,164.36 -468.84,212.86 -120.35,35.93 -287.41,69.16 -501.17,99.7 -114.96,16.17 -211.06,24.25 -288.3,24.25 z"
   id="path18"
   inkscape:connector-curvature="0"
   style="fill:#1a1a1a;fill-rule:nonzero" />
    <path
   class="fil3"
   d="m 3753.47,1985.53 59.28,10.78 -191.31,762.53 h -261.36 l 8.08,-37.72 c 8.98,-41.32 13.47,-79.04 13.47,-113.17 v -40.42 l -5.38,-88.91 c -5.39,-82.63 -34.13,-150 -86.23,-202.09 -52.09,-52.09 -118.55,-78.14 -199.39,-78.14 -91.61,0 -192.2,37.72 -301.78,113.17 -143.7,98.8 -255.97,216.45 -336.81,352.97 -88.02,147.3 -132.03,302.68 -132.03,466.15 0,138.31 35.03,253.28 105.09,344.89 77.24,100.59 183.22,150.89 317.95,150.89 100.59,0 211.96,-35.03 334.11,-105.08 91.61,-52.1 171.55,-109.58 239.81,-172.45 l 32.33,-29.64 26.95,-21.56 261.36,167.06 -21.56,24.25 -21.55,18.86 c -233.52,247.89 -542.49,371.84 -926.9,371.84 -165.26,0 -299.09,-15.27 -401.48,-45.81 -127.53,-37.72 -243.4,-106.88 -347.58,-207.47 -141.91,-136.52 -212.87,-313.46 -212.87,-530.81 0,-202.98 42.22,-373.63 126.64,-511.95 79.04,-125.74 207.48,-247.89 385.31,-366.45 273.04,-179.63 617.94,-269.45 1034.68,-269.45 107.78,0 226.34,7.19 355.67,21.56 z"
   id="path20"
   inkscape:connector-curvature="0"
   style="fill:#1a1a1a;fill-rule:nonzero" />
    <path
   class="fil4"
   d="M 1232.99,2490.42 H 578.23 l 485,-1940.02 h 641.29 l -404.17,1624.77 c -5.39,23.35 7.18,41.31 37.72,53.89 25.15,10.77 50.3,16.16 75.44,16.16 37.73,0 80.84,-7.18 129.34,-21.55 253.28,-73.65 452.67,-182.33 598.17,-326.03 168.85,-167.06 253.28,-371.84 253.28,-614.34 0,-156.28 -44.01,-278.88 -132.03,-367.8 -88.02,-88.92 -210.17,-133.37 -366.45,-133.37 -44.9,0 -78.13,0 -99.69,0 l 72.75,-231.73 h 444.59 c 287.41,0 501.17,81.73 641.28,245.2 100.6,116.76 150.89,256.87 150.89,420.34 0,150.89 -61.07,331.42 -183.22,541.58 -79.04,134.73 -222.75,266.76 -431.12,396.09 -149.09,93.41 -305.37,164.36 -468.84,212.86 -120.35,35.93 -287.41,69.16 -501.17,99.7 -114.96,16.17 -211.06,24.25 -288.3,24.25 z"
   id="path22"
   inkscape:connector-curvature="0"
   style="fill:#ffffff;fill-rule:nonzero" />
    <path
   class="fil4"
   d="m 3616.25,1785.43 59.28,10.78 -191.31,762.53 h -261.36 l 8.08,-37.72 c 8.98,-41.32 13.47,-79.04 13.47,-113.17 v -40.42 l -5.38,-88.91 c -5.39,-82.63 -34.13,-150 -86.23,-202.09 -52.09,-52.09 -118.55,-78.14 -199.39,-78.14 -91.61,0 -192.2,37.72 -301.78,113.17 -143.7,98.8 -255.97,216.45 -336.81,352.97 -88.02,147.3 -132.03,302.68 -132.03,466.15 0,138.31 35.03,253.28 105.09,344.89 77.24,100.59 183.22,150.89 317.95,150.89 100.59,0 211.96,-35.03 334.11,-105.08 91.61,-52.1 171.55,-109.58 239.81,-172.45 l 32.33,-29.64 26.95,-21.56 261.36,167.06 -21.56,24.25 -21.55,18.86 c -233.52,247.89 -542.49,371.84 -926.9,371.84 -165.26,0 -299.09,-15.27 -401.48,-45.81 -127.53,-37.72 -243.4,-106.88 -347.58,-207.47 -141.91,-136.52 -212.87,-313.46 -212.87,-530.81 0,-202.98 42.22,-373.63 126.64,-511.95 79.04,-125.74 207.48,-247.89 385.31,-366.45 273.04,-179.63 617.94,-269.45 1034.68,-269.45 107.78,0 226.34,7.19 355.67,21.56 z"
   id="path24"
   inkscape:connector-curvature="0"
   style="fill:#ffffff;fill-rule:nonzero" />
   </g>
  </g>
  <path
   class="fil5"
   d="m 863.59,0 h 2607.74 c 474.99,0 863.59,388.6 863.59,863.59 v 2607.74 c 0,474.99 -388.6,863.59 -863.59,863.59 H 863.59 C 388.6,4334.92 0,3946.32 0,3471.33 V 863.59 C 0,388.6 388.6,0 863.59,0 Z"
   id="path30"
   inkscape:connector-curvature="0"
   style="fill:none" />
 </g>
</svg>